inDegrees=yes
name=ik_S51_A10_T01
DataType=double
version=3
OpenSimVersion=4.3-2021-08-27-4bc7ad9
endheader
time	pelvis_tilt	pelvis_list	pelvis_rotation	pelvis_tx	pelvis_ty	pelvis_tz	hip_flexion_r	hip_adduction_r	hip_rotation_r	knee_angle_r	knee_angle_r_beta	ankle_angle_r	subtalar_angle_r	mtp_angle_r	hip_flexion_l	hip_adduction_l	hip_rotation_l	knee_angle_l	knee_angle_l_beta	ankle_angle_l	subtalar_angle_l	mtp_angle_l	lumbar_extension	lumbar_bending	lumbar_rotation	arm_flex_r	arm_add_r	arm_rot_r	elbow_flex_r	pro_sup_r	wrist_flex_r	wrist_dev_r	arm_flex_l	arm_add_l	arm_rot_l	elbow_flex_l	pro_sup_l	wrist_flex_l	wrist_dev_l
0	0	0	0	0	0.9399999999999999	0	0	0	0	0	0	0	0	0	0	0	0	0	0	0	0	0	0	0	0	0	0	0	0	89.99999999963507	0	0	0	0	0	0	89.99999999869995	0	0
0.02	0.2430190693844022	-0.03691977121743906	22.33213117843054	0	0.9399999999999999	0	1.795420374604504	-0.8404957262746994	-0.6041408863198363	2.805674756876054	0.04896826224757855	0	0	0	1.795420374604504	-0.8404957262746994	-0.6041408863198363	2.805674756876054	0.04896826224757855	0	0	0	0.2598617440770852	0.9202123200675268	10.51707369081893	11.37410045884752	1.904034309876588	-10.56545784892735	-9.148256905178624	107.9273511412497	0	0	12.04392321507262	4.46555469854172	-6.853771921575639	8.15582143429307	100.3333565913342	0	0
0.04	0.2383213218569135	0.04523050355281715	23.28723525428257	0	0.9399999999999999	0	10.00940648546157	-4.383046969241326	-3.474678952055401	10.77888701963711	0.1881270681931463	0	0	0	10.00940648546157	-4.383046969241326	-3.474678952055401	10.77888701963711	0.1881270681931463	0	0	0	0.2625159414364517	0.8424369035014951	9.587047266104237	11.33848433278071	1.9085345470087	-10.61801708291302	-9.212427587263939	108.1154861131059	0	0	12.0288262759118	4.445465789446625	-6.928776876270859	8.195293809541866	100.3090484940789	0	0
0.06	0.2389713412031587	0.04940032126374336	23.32875046871805	0	0.9399999999999999	0	10.01363432900339	-4.38493822612427	-3.476086521478545	10.78408320206906	0.1882177586851181	0	0	0	10.01363432900339	-4.38493822612427	-3.476086521478545	10.78408320206906	0.1882177586851181	0	0	0	0.2647526526035812	0.8460070993429126	9.59799584877347	11.36426244584832	1.909919351319965	-10.54822738906878	-9.195275869804169	108.1263750395042	0	0	12.01553678604515	4.426064106221223	-6.931126680036582	8.173885921602334	100.3030249561071	0	0
0.08	0.2207592298332552	0.04911538617875659	23.38932404211528	0	0.9399999999999999	0	10.02979642790503	-4.392196573382861	-3.481477460110698	10.80390129366114	0.1885636496348616	0	0	0	10.02979642790503	-4.392196573382861	-3.481477460110698	10.80390129366114	0.1885636496348616	0	0	0	0.2479271539532336	0.8527392288389214	9.597610254614072	11.4454774415099	1.955770877465388	-10.32744151518626	-9.134348078114209	107.7988785167009	0	0	12.03677868153089	4.426101141312582	-6.923849699047103	8.173604215102177	100.2705600825126	0	0
0.1	0.2121256894824149	0.04670719787270578	23.43659446870704	0	0.9399999999999999	0	10.04578225377252	-4.399368747312855	-3.486808035109359	10.82349640731048	0.1889056488853451	0	0	0	10.04578225377252	-4.399368747312855	-3.486808035109359	10.82349640731048	0.1889056488853451	0	0	0	0.2390408520234441	0.8537647229450501	9.603638930744815	11.48319581921484	1.975032999992368	-10.21403671517693	-9.07155435457428	107.6127944663818	0	0	12.04369279040979	4.42554173269268	-6.862750339497871	8.178146320242071	100.163649889834	0	0
0.12	0.2076901919022789	0.04341185491279047	23.48555786693285	0	0.9399999999999999	0	10.05966160905819	-4.405562852478289	-3.491425714523175	10.84053865644859	0.1892030922447503	0	0	0	10.05966160905819	-4.405562852478289	-3.491425714523175	10.84053865644859	0.1892030922447503	0	0	0	0.2337481055705815	0.8521306984950799	9.57008126280944	11.46127243144203	2.00632020938355	-10.24381625766009	-9.114327628371079	108.1993793055729	0	0	12.04173532983402	4.398396355070319	-6.871328978472866	8.206925796048761	100.1000921382162	0	0
0.14	0.1946240487482487	0.06499292397469443	24.14597815438116	0	0.9399999999999999	0	15.44706807606883	-6.342411075907525	-5.191129025865453	16.47027072122771	0.2874604527802447	0	0	0	15.44706807606883	-6.342411075907525	-5.191129025865453	16.47027072122771	0.2874604527802447	0	0	0	0.2164551037644222	0.8383177254812084	8.969796133866771	11.49340223762795	1.980149550785429	-10.29180865308733	-9.153259804438857	108.1843541727492	0	0	12.05516262209462	4.428424303721309	-6.82525414932122	8.212238416494854	100.0781225041039	0	0
0.16	0.1658802923893804	0.05843959184106853	24.20896307219439	0	0.9399999999999999	0	15.46243997165534	-6.348091456067879	-5.195920147752671	16.48767232613826	0.287764168081065	0	0	0	15.46243997165534	-6.348091456067879	-5.195920147752671	16.48767232613826	0.287764168081065	0	0	0	0.187576826182454	0.8438183653452859	8.96057289877449	11.58532167633014	2.046944560059601	-10.01285382213959	-9.099076718758424	107.9105588471792	0	0	12.09260028096208	4.443084237001036	-6.783086815633395	8.246490239950777	99.95886063791944	0	0
0.18	0.07957617848477021	0.1152482900095024	24.5095802300529	0	0.9399999999999999	0	17.78725133337614	-7.017393751404808	-5.852685338114003	18.94921398793582	0.330726174754445	0	0	0	17.78725133337614	-7.017393751404808	-5.852685338114003	18.94921398793582	0.330726174754445	0	0	0	0.2042716499440748	0.761956565844204	8.707057445794431	11.62157544671085	2.019656144279991	-10.05454163481914	-9.143725104062714	107.9580012719312	0	0	12.12481667641724	4.448148298000173	-6.747281309596697	8.234803432553555	99.95400020898332	0	0
0.2	0.005211431711302447	0.1572219047780598	24.69442684241875	0	0.9399999999999999	0	19.15445825769802	-7.361811162281608	-6.214564929096152	20.39832882091141	0.3560179998293569	0	0	0	19.15445825769802	-7.361811162281608	-6.214564929096152	20.39832882091141	0.3560179998293569	0	0	0	0.1993958808393407	0.7094288321354265	8.571014221076851	11.50687459227305	1.996411326231606	-9.958032495812198	-8.234628988287666	107.5856938245086	0	0	12.14283445587642	4.464094729570397	-6.670862071014024	8.328346114030667	99.86420290443132	0	0
0.22	-0.003556122972782062	0.1607229130050346	24.73474762815803	0	0.9399999999999999	0	19.17243434102531	-7.367505168431814	-6.21980791275482	20.41805563745583	0.3563622977289938	0	0	0	19.17243434102531	-7.367505168431814	-6.21980791275482	20.41805563745583	0.3563622977289938	0	0	0	0.1927452691563925	0.7164534297497723	8.572992952442261	11.63373753571803	2.064579816043673	-9.928704039034798	-9.105839738314232	107.7844357725361	0	0	12.14874084852969	4.469021077435041	-6.653694626040111	8.17987157093971	99.95788255833592	0	0
0.24	-0.04152673030391926	0.1925981680432308	24.95156051698702	0	0.9399999999999999	0	20.62804765512664	-7.719051285489475	-6.596320511279737	21.96775990109156	0.3834097395616316	0	0	0	20.62804765512664	-7.719051285489475	-6.596320511279737	21.96775990109156	0.3834097395616316	0	0	0	0.1976295616001926	0.6967285050103665	8.393384867232029	11.65674284725064	2.038282847754396	-9.931341115725596	-9.093246791316583	107.7128373069464	0	0	12.14859385180266	4.491450226541385	-6.646268342190231	8.08582816241457	100.0897858357628	0	0
0.26	-0.05339070218718865	0.2155927197598052	25.13738554403525	0	0.9399999999999999	0	21.87693511383234	-7.999238023039686	-6.907102436280807	23.30297089074172	0.4067135675398387	0	0	0	21.87693511383234	-7.999238023039686	-6.907102436280807	23.30297089074172	0.4067135675398387	0	0	0	0.202494647795275	0.6916735454018194	8.239398110973456	11.45470066099907	2.056089972142119	-9.846938847104896	-8.144335089072484	107.3410831518113	0	0	12.11070330145633	4.482780876139906	-6.62506361065987	8.142743162342803	100.150909888506	0	0
0.28	-0.06842902393734239	0.2546738202512682	25.32119721703033	0	0.9399999999999999	0	22.79127557122344	-8.214216262497796	-7.139970655395121	24.28173941933049	0.423796300978613	0	0	0	22.79127557122344	-8.214216262497796	-7.139970655395121	24.28173941933049	0.423796300978613	0	0	0	0.2216985643232546	0.6846580515602058	8.071205186234659	11.5855652715419	1.990820387688928	-9.997768560228167	-9.235474276651042	107.8723509266784	0	0	12.07444578296571	4.481648207499642	-6.721453103356844	8.021751059862535	100.4733589796055	0	0
0.3	-0.06767053645643425	0.2655367104973476	25.47123676645104	0	0.9399999999999999	0	23.99925117525921	-8.45153249878534	-7.421103570425641	25.58169693811991	0.4464848398175446	0	0	0	23.99925117525921	-8.45153249878534	-7.421103570425641	25.58169693811991	0.4464848398175446	0	0	0	0.2175387513642806	0.6932372443341873	7.912501211740566	11.55381797819519	2.004951483135052	-10.01773958861342	-9.26768354514782	107.7904559647164	0	0	12.07873297455117	4.445456158134475	-6.808585541037393	7.934688794597736	100.6064629033414	0	0
0.32	-0.06838337711647173	0.3045883377814391	25.6548537383481	0	0.9399999999999999	0	25.13860752338214	-8.658684948772697	-7.675721841735663	26.814456284992	0.4680005493051974	0	0	0	25.13860752338214	-8.658684948772697	-7.675721841735663	26.814456284992	0.4680005493051974	0	0	0	0.2203008112399785	0.7130716634719705	7.753326807064748	11.527548763642	1.960106985107401	-10.03276073908309	-9.305032427398444	107.6734905685835	0	0	12.04675863025429	4.454524124083054	-6.827844892393565	7.90701921375786	100.657112917712	0	0
0.34	-0.06275597192221456	0.3123460189702935	25.64183502769567	0	0.9399999999999999	0	25.14553639633816	-8.660205671028796	-7.677414743413806	26.82199252097896	0.468132081436377	0	0	0	25.14553639633816	-8.660205671028796	-7.677414743413806	26.82199252097896	0.468132081436377	0	0	0	0.2285777071506162	0.7177158916839524	7.779494250725238	11.47195718283187	1.967948317451389	-10.25241659861888	-9.36515545724999	107.8583555973425	0	0	12.00334476037928	4.41456959520844	-6.822322213597248	7.956236222405018	100.6864195336387	0	0
0.36	-0.05782674343474513	0.3339082900973773	25.792746957257	0	0.9399999999999999	0	26.20928010707592	-8.838975058341212	-7.905461632669502	27.97986935054576	0.488340844444871	0	0	0	26.20928010707592	-8.838975058341212	-7.905461632669502	27.97986935054576	0.488340844444871	0	0	0	0.2106025406837405	0.7383306936346035	7.602257754838852	11.46850048642277	1.956923791570507	-10.21138963151489	-9.37978614680792	107.8062246842531	0	0	12.02175022976771	4.383613634107807	-6.869749257747537	7.929563097781565	100.7505327472668	0	0
